<svg width="1440" height="900" viewBox="0 0 1440 900" fill="none" xmlns="http://www.w3.org/2000/svg">
<rect x="20" y="120" width="1400" height="760" rx="15" fill="#F3F3F3"/>
<path d="M53.8776 888.576C74.9221 795.2 166.421 601.819 364.062 575.298C611.112 542.148 789.713 723.305 1066.16 666.479C1287.32 621.017 1472.98 278.625 1538.17 113.111M-9.22097 562.838C27.6487 633.689 151.724 765.364 353.069 725.259C604.75 675.128 940.08 208.063 1262.15 245.758C1519.8 275.914 1738.81 317.601 1816.1 334.675M-4.58385 746.541C8.98734 634.213 96.1381 399.193 336.172 357.743C636.214 305.929 860.731 510.473 1184.82 447.279C1444.09 396.723 1614.96 244.043 1668 174.023" stroke="white" stroke-opacity="0.8" stroke-width="3" stroke-linecap="round"/>
</svg>
