<svg width="205" height="54" viewBox="0 0 205 54" fill="none" xmlns="http://www.w3.org/2000/svg">
<path d="M78.74 27.112C80.156 27.376 81.32 28.084 82.232 29.236C83.144 30.388 83.6 31.708 83.6 33.196C83.6 34.54 83.264 35.728 82.592 36.76C81.944 37.768 80.996 38.56 79.748 39.136C78.5 39.712 77.024 40 75.32 40H64.484V14.872H74.852C76.556 14.872 78.02 15.148 79.244 15.7C80.492 16.252 81.428 17.02 82.052 18.004C82.7 18.988 83.024 20.104 83.024 21.352C83.024 22.816 82.628 24.04 81.836 25.024C81.068 26.008 80.036 26.704 78.74 27.112ZM69.524 25.24H74.132C75.332 25.24 76.256 24.976 76.904 24.448C77.552 23.896 77.876 23.116 77.876 22.108C77.876 21.1 77.552 20.32 76.904 19.768C76.256 19.216 75.332 18.94 74.132 18.94H69.524V25.24ZM74.6 35.896C75.824 35.896 76.772 35.608 77.444 35.032C78.14 34.456 78.488 33.64 78.488 32.584C78.488 31.504 78.128 30.664 77.408 30.064C76.688 29.44 75.716 29.128 74.492 29.128H69.524V35.896H74.6ZM87.0408 29.956C87.0408 27.94 87.4368 26.152 88.2288 24.592C89.0448 23.032 90.1368 21.832 91.5048 20.992C92.8968 20.152 94.4448 19.732 96.1488 19.732C97.6368 19.732 98.9328 20.032 100.037 20.632C101.165 21.232 102.065 21.988 102.737 22.9V20.056H107.813V40H102.737V37.084C102.089 38.02 101.189 38.8 100.037 39.424C98.9088 40.024 97.6008 40.324 96.1128 40.324C94.4328 40.324 92.8968 39.892 91.5048 39.028C90.1368 38.164 89.0448 36.952 88.2288 35.392C87.4368 33.808 87.0408 31.996 87.0408 29.956ZM102.737 30.028C102.737 28.804 102.497 27.76 102.017 26.896C101.537 26.008 100.889 25.336 100.073 24.88C99.2568 24.4 98.3808 24.16 97.4448 24.16C96.5088 24.16 95.6448 24.388 94.8528 24.844C94.0608 25.3 93.4128 25.972 92.9088 26.86C92.4288 27.724 92.1888 28.756 92.1888 29.956C92.1888 31.156 92.4288 32.212 92.9088 33.124C93.4128 34.012 94.0608 34.696 94.8528 35.176C95.6688 35.656 96.5328 35.896 97.4448 35.896C98.3808 35.896 99.2568 35.668 100.073 35.212C100.889 34.732 101.537 34.06 102.017 33.196C102.497 32.308 102.737 31.252 102.737 30.028ZM112.159 30.028C112.159 27.964 112.579 26.164 113.419 24.628C114.259 23.068 115.423 21.868 116.911 21.028C118.399 20.164 120.103 19.732 122.023 19.732C124.495 19.732 126.535 20.356 128.143 21.604C129.775 22.828 130.867 24.556 131.419 26.788H125.983C125.695 25.924 125.203 25.252 124.507 24.772C123.835 24.268 122.995 24.016 121.987 24.016C120.547 24.016 119.407 24.544 118.567 25.6C117.727 26.632 117.307 28.108 117.307 30.028C117.307 31.924 117.727 33.4 118.567 34.456C119.407 35.488 120.547 36.004 121.987 36.004C124.027 36.004 125.359 35.092 125.983 33.268H131.419C130.867 35.428 129.775 37.144 128.143 38.416C126.511 39.688 124.471 40.324 122.023 40.324C120.103 40.324 118.399 39.904 116.911 39.064C115.423 38.2 114.259 37 113.419 35.464C112.579 33.904 112.159 32.092 112.159 30.028ZM147.64 40L140.872 31.504V40H135.832V13.36H140.872V28.516L147.568 20.056H154.12L145.336 30.064L154.192 40H147.64ZM176.403 20.056V40H171.327V37.48C170.679 38.344 169.827 39.028 168.771 39.532C167.739 40.012 166.611 40.252 165.387 40.252C163.827 40.252 162.447 39.928 161.247 39.28C160.047 38.608 159.099 37.636 158.403 36.364C157.731 35.068 157.395 33.532 157.395 31.756V20.056H162.435V31.036C162.435 32.62 162.831 33.844 163.623 34.708C164.415 35.548 165.495 35.968 166.863 35.968C168.255 35.968 169.347 35.548 170.139 34.708C170.931 33.844 171.327 32.62 171.327 31.036V20.056H176.403ZM187.136 22.936C187.784 22.024 188.672 21.268 189.8 20.668C190.952 20.044 192.26 19.732 193.724 19.732C195.428 19.732 196.964 20.152 198.332 20.992C199.724 21.832 200.816 23.032 201.608 24.592C202.424 26.128 202.832 27.916 202.832 29.956C202.832 31.996 202.424 33.808 201.608 35.392C200.816 36.952 199.724 38.164 198.332 39.028C196.964 39.892 195.428 40.324 193.724 40.324C192.26 40.324 190.964 40.024 189.836 39.424C188.732 38.824 187.832 38.068 187.136 37.156V49.504H182.096V20.056H187.136V22.936ZM197.684 29.956C197.684 28.756 197.432 27.724 196.928 26.86C196.448 25.972 195.8 25.3 194.984 24.844C194.192 24.388 193.328 24.16 192.392 24.16C191.48 24.16 190.616 24.4 189.8 24.88C189.008 25.336 188.36 26.008 187.856 26.896C187.376 27.784 187.136 28.828 187.136 30.028C187.136 31.228 187.376 32.272 187.856 33.16C188.36 34.048 189.008 34.732 189.8 35.212C190.616 35.668 191.48 35.896 192.392 35.896C193.328 35.896 194.192 35.656 194.984 35.176C195.8 34.696 196.448 34.012 196.928 33.124C197.432 32.236 197.684 31.18 197.684 29.956Z" fill="#FF4F5B"/>
<path d="M20.3875 14.4334L21.8146 13.0062C24.6172 10.2037 29.1798 10.1343 31.9985 12.9207C33.0665 13.9789 33.7763 15.345 34.0281 16.8273C34.2798 18.3095 34.0609 19.8334 33.4021 21.1848C33.0861 21.8304 32.9797 22.5586 33.0975 23.2676C33.2155 23.9766 33.5519 24.6311 34.0598 25.1396C34.9939 24.2035 35.7341 23.0924 36.2386 21.87C36.7431 20.6476 37.0018 19.3377 37 18.0153C36.998 16.6929 36.7357 15.3838 36.2278 14.1628C35.7198 12.9418 34.9763 11.8329 34.0396 10.8994C30.0982 6.98016 23.7006 7.05815 19.7702 10.9884L6.16702 24.5911L5.04872 23.4728C2.19864 20.6228 2.18048 15.964 5.08083 13.1646C6.15442 12.1316 7.52218 11.4572 8.99535 11.2346C10.4685 11.012 11.9745 11.2522 13.3053 11.9219C13.9128 12.2332 14.6031 12.3445 15.2776 12.24C15.9521 12.1356 16.5764 11.8206 17.0612 11.3401L17.0959 11.3056C17.1067 11.2949 17.1152 11.2822 17.1211 11.2681C17.1269 11.2541 17.1299 11.239 17.1299 11.2238C17.1299 11.2086 17.1269 11.1935 17.1211 11.1795C17.1152 11.1654 17.1067 11.1527 17.0959 11.142C15.2236 9.31671 12.7147 8.29147 10.0999 8.28318C7.48515 8.2749 4.96972 9.28421 3.08591 11.0975C-0.972024 15.0149 -0.957523 21.5291 3.03086 25.5175L16.63 39.1166L15.1854 40.5612C12.3828 43.3637 7.82007 43.4331 5.00156 40.6467C3.93352 39.5886 3.22376 38.2224 2.97197 36.7402C2.7202 35.2579 2.93901 33.7341 3.59772 32.3825C3.91374 31.737 4.02025 31.0088 3.90238 30.2999C3.78449 29.5908 3.4481 28.9363 2.9402 28.4278C2.0062 29.364 1.26581 30.475 0.76132 31.6973C0.25683 32.9199 -0.00186446 34.2296 1.01152e-05 35.5521C0.00188469 36.8745 0.264291 38.1836 0.772246 39.4045C1.2802 40.6256 2.02374 41.7345 2.96039 42.668C6.90161 46.5874 13.2995 46.5096 17.2299 42.5792L30.8506 28.9583L31.9731 30.0808C34.7757 32.8833 34.845 37.4459 32.0587 40.2644C31.0005 41.3326 29.6343 42.0423 28.1521 42.2942C26.6699 42.546 25.1461 42.3271 23.7945 41.6683C23.1487 41.3521 22.4202 41.2455 21.711 41.3637C21.0017 41.4816 20.3469 41.8184 19.8384 42.3267C20.7747 43.2608 21.8857 44.0012 23.108 44.5057C24.3305 45.0102 25.6402 45.2689 26.9628 45.2671C28.2852 45.2651 29.5943 45.0026 30.8152 44.4947C32.0363 43.9867 33.1452 43.2431 34.0787 42.3065C37.9981 38.3653 37.9201 31.9675 33.9899 28.0372L20.3875 14.4334ZM18.6607 37.085L8.19828 26.6226L18.356 16.465L28.8184 26.9274L18.6607 37.085Z" fill="#FF4F5B"/>
</svg>
